ffmpeg version 2.8.6-1ubuntu2 Copyright (c) 2000-2016 the FFmpeg developers
  built with gcc 5.3.1 (Ubuntu 5.3.1-11ubuntu1) 20160311
  configuration: --prefix=/usr --extra-version=1ubuntu2 --build-suffix=-ffmpeg --toolchain=hardened --libdir=/usr/lib/x86_64-linux-gnu --incdir=/usr/include/x86_64-linux-gnu --cc=cc --cxx=g++ --enable-gpl --enable-shared --disable-stripping --disable-decoder=libopenjpeg --disable-decoder=libschroedinger --enable-avresample --enable-avisynth --enable-gnutls --enable-ladspa --enable-libass --enable-libbluray --enable-libbs2b --enable-libcaca --enable-libcdio --enable-libflite --enable-libfontconfig --enable-libfreetype --enable-libfribidi --enable-libgme --enable-libgsm --enable-libmodplug --enable-libmp3lame --enable-libopenjpeg --enable-libopus --enable-libpulse --enable-librtmp --enable-libschroedinger --enable-libshine --enable-libsnappy --enable-libsoxr --enable-libspeex --enable-libssh --enable-libtheora --enable-libtwolame --enable-libvorbis --enable-libvpx --enable-libwavpack --enable-libwebp --enable-libx265 --enable-libxvid --enable-libzvbi --enable-openal --enable-opengl --enable-x11grab --enable-libdc1394 --enable-libiec61883 --enable-libzmq --enable-frei0r --enable-libx264 --enable-libopencv
  WARNING: library configuration mismatch
  avcodec     configuration: --prefix=/usr --extra-version=1ubuntu2 --build-suffix=-ffmpeg --toolchain=hardened --libdir=/usr/lib/x86_64-linux-gnu --incdir=/usr/include/x86_64-linux-gnu --cc=cc --cxx=g++ --enable-gpl --enable-shared --disable-stripping --disable-decoder=libopenjpeg --disable-decoder=libschroedinger --enable-avresample --enable-avisynth --enable-gnutls --enable-ladspa --enable-libass --enable-libbluray --enable-libbs2b --enable-libcaca --enable-libcdio --enable-libflite --enable-libfontconfig --enable-libfreetype --enable-libfribidi --enable-libgme --enable-libgsm --enable-libmodplug --enable-libmp3lame --enable-libopenjpeg --enable-libopus --enable-libpulse --enable-librtmp --enable-libschroedinger --enable-libshine --enable-libsnappy --enable-libsoxr --enable-libspeex --enable-libssh --enable-libtheora --enable-libtwolame --enable-libvorbis --enable-libvpx --enable-libwavpack --enable-libwebp --enable-libx265 --enable-libxvid --enable-libzvbi --enable-openal --enable-opengl --enable-x11grab --enable-libdc1394 --enable-libiec61883 --enable-libzmq --enable-frei0r --enable-libx264 --enable-libopencv --enable-version3 --disable-doc --disable-programs --disable-avdevice --disable-avfilter --disable-avformat --disable-avresample --disable-postproc --disable-swscale --enable-libopencore_amrnb --enable-libopencore_amrwb --enable-libvo_aacenc --enable-libvo_amrwbenc
  libavutil      54. 31.100 / 54. 31.100
  libavcodec     56. 60.100 / 56. 60.100
  libavformat    56. 40.101 / 56. 40.101
  libavdevice    56.  4.100 / 56.  4.100
  libavfilter     5. 40.101 /  5. 40.101
  libavresample   2.  1.  0 /  2.  1.  0
  libswscale      3.  1.101 /  3.  1.101
  libswresample   1.  2.101 /  1.  2.101
  libpostproc    53.  3.100 / 53.  3.100
[mp3 @ 0x11928a0] Skipping 0 bytes of junk at 0.
[mp3 @ 0x11928a0] Estimating duration from bitrate, this may be inaccurate
Input #0, mp3, from '/var/www/html/dev_coupeTranscriber/uploads/WanChaiExtended.mp3':
  Duration: 00:08:07.42, start: 0.000000, bitrate: 160 kb/s
    Stream #0:0: Audio: mp3, 44100 Hz, stereo, s16p, 160 kb/s
Output #0, mp3, to '/var/www/html/dev_coupeTranscriber/resultats/WanChaiExtended.mp3':
  Metadata:
    TSSE            : Lavf56.40.101
    Stream #0:0: Audio: mp3, 44100 Hz, stereo, 160 kb/s
Stream mapping:
  Stream #0:0 -> #0:0 (copy)
Press [q] to stop, [?] for help
size=     196kB time=00:00:10.00 bitrate= 160.5kbits/s    
video:0kB audio:195kB subtitle:0kB other streams:0kB global headers:0kB muxing overhead: 0.283361%
